<svg width="160" height="51" viewBox="0 0 160 51" fill="none" xmlns="http://www.w3.org/2000/svg">
<path fill-rule="evenodd" clip-rule="evenodd" d="M1.33063 0.665446C1.33063 1.13789 1.39857 1.33969 1.56545 1.36201C2.73813 1.51934 2.936 1.59792 3.10695 1.97465C3.2397 2.26714 3.28745 6.88314 3.28745 19.4248V36.4771L2.92113 36.8447C2.71982 37.047 2.26192 37.2622 1.90359 37.323C1.26942 37.4305 1.25236 37.4495 1.25236 38.0483V38.6632H5.56628H9.88035L9.83213 37.9952L9.78407 37.3272L9.04127 37.2416C8.63268 37.1944 8.21909 37.0762 8.12234 36.9791C7.75071 36.606 7.68418 35.194 7.6776 27.5436L7.67071 19.6459H8.46549C9.1319 19.6459 9.33275 19.7188 9.70987 20.0973C10.1728 20.562 10.2465 20.7665 10.4113 22.0427L10.5078 22.7893H11.4373H12.3671V18.9387V15.0881H11.3714H10.3758L10.2856 15.9646C10.1382 17.3995 9.60827 17.9171 8.28672 17.9171H7.67071V9.72253V1.52814L9.09543 1.60971C11.6507 1.75587 11.9264 2.2214 12.0253 6.55702L12.0945 9.5872H13.7962H15.498V4.7936V0L8.4143 0.000157156H1.33063V0.665446ZM31.4656 0.707253V1.41451H32.0619C33.2428 1.41451 33.2608 1.4659 33.3058 4.97717C33.3277 6.69155 33.3629 9.09716 33.384 10.3229C33.418 12.2932 33.3951 12.5278 33.1876 12.3452C32.5603 11.793 31.613 11.4732 30.6058 11.4732C28.9845 11.4732 28.0252 12.0043 27.3411 13.2806C27.0072 13.9036 27.0036 14.0052 26.9563 24.4395C26.9045 35.8742 26.927 36.2506 27.7396 37.4824C28.8034 39.0947 31.6365 39.4688 33.0888 38.1887C33.6508 37.6933 33.8138 37.7175 33.8138 38.2965V38.6632H36.5533H39.2928V38.0416C39.2928 37.4538 39.2626 37.4143 38.736 37.3151C37.6859 37.1174 37.7482 38.0592 37.6962 21.6105C37.6704 13.3985 37.6288 5.17678 37.6039 3.3398L37.5588 0H34.5121H31.4656V0.707253ZM50.8772 0.707253C50.8772 1.38229 50.8978 1.41451 51.3294 1.41451C51.5782 1.41451 51.9481 1.54967 52.1513 1.71485L52.5209 2.01536V19.3119C52.5209 38.53 52.6095 37.0014 51.4816 37.2314C50.9954 37.3304 50.9518 37.3887 50.9074 38.0008L50.8592 38.6632H54.7819H58.7044V38.1445C58.7044 37.5421 58.4691 37.2486 57.986 37.2486C57.7976 37.2486 57.477 37.1135 57.2738 36.9483L56.9042 36.648L56.8597 28.3041L56.8154 19.9602H59.2511H61.6868L61.6436 28.361C61.6115 34.6326 61.5529 36.8094 61.4128 36.95C61.3095 37.0536 60.9573 37.1817 60.6301 37.2347C60.06 37.3269 60.033 37.3588 59.987 37.9971L59.9388 38.6632H63.7921H67.6455L67.5973 38.0008C67.5528 37.3887 67.5093 37.3304 67.0231 37.2314C65.8952 37.0014 65.9838 38.5267 65.9838 19.3424C65.9838 2.58383 65.9925 2.06644 66.282 1.74534C66.4719 1.53458 66.7703 1.41451 67.1039 1.41451C67.6201 1.41451 67.6275 1.40445 67.6275 0.707253V0H63.9487H60.2699V0.707253C60.2699 1.37757 60.2929 1.41451 60.7096 1.41451C60.9515 1.41451 61.2726 1.50503 61.4231 1.61552C61.678 1.80271 61.6963 2.38658 61.6886 10.0633L61.6805 18.31L59.2491 18.3534L56.8177 18.3966L56.861 10.1491C56.8938 3.87999 56.9503 1.8552 57.0967 1.70825C57.2027 1.60201 57.5901 1.4747 57.9577 1.42551C58.616 1.33734 58.6269 1.32571 58.6742 0.667961L58.7224 0H54.7997H50.8772V0.707253ZM44.224 11.4878C42.3635 11.6727 40.7188 12.8 40.2136 14.2368C40.0378 14.7368 39.9973 16.799 39.9973 25.2253V35.5984L40.3575 36.3842C40.8285 37.4116 41.4954 38.086 42.4835 38.5341C43.1933 38.856 43.526 38.8976 45.3981 38.8983C47.2967 38.8989 47.5868 38.8617 48.2533 38.5321C49.1549 38.0863 50.1333 37.0083 50.3725 36.197C50.4695 35.8678 50.5616 34.3253 50.5772 32.7694L50.6054 29.9404L48.6279 29.8964L46.6505 29.8524L46.6495 32.8825C46.6486 36.1777 46.5238 36.9615 45.939 37.3464C45.3502 37.7337 44.529 37.519 44.1852 36.8879C43.9418 36.441 43.9056 35.7782 43.8641 31.0012L43.8173 25.6183H47.1907H50.5641V20.298C50.5641 14.6173 50.5359 14.3696 49.7673 13.3012C48.7477 11.8842 46.7644 11.2354 44.224 11.4878ZM17.7679 11.6931C16.7597 12.0132 16.2272 12.3474 15.5496 13.0853C14.6465 14.069 14.4933 14.6527 14.4864 17.1312L14.4804 19.253L16.4764 19.297L18.4723 19.341L18.4811 16.7823C18.4866 15.2327 18.5637 14.0088 18.6768 13.6789C19.0706 12.5305 20.3205 12.4384 20.8593 13.5181C21.0999 14 21.1331 14.5861 21.1333 18.3493L21.1336 22.6321H20.0663C17.5897 22.6321 15.4316 23.8052 14.4278 25.6969L14.0108 26.4827V31.1977V35.9127L14.4477 36.8059C15.5617 39.0836 18.9705 39.6816 20.8402 37.9273L21.2513 37.5416L21.356 38.1024L21.4609 38.6632H23.9675H26.4741L26.4259 37.9952C26.3833 37.4024 26.3307 37.3217 25.9588 37.2787C25.0983 37.1787 25.1316 37.6109 25.0472 25.4762L24.969 14.2233L24.5179 13.5162C23.5535 12.0043 22.3759 11.4806 19.9595 11.4889C19.0985 11.4918 18.1123 11.5837 17.7679 11.6931ZM72.089 11.6931C70.6413 12.1528 69.7463 12.9283 69.1812 14.2123C68.8902 14.8738 68.8376 15.2983 68.821 17.1199L68.8016 19.253L70.8631 19.2967L72.9245 19.3405L72.9765 16.5389C73.02 14.1864 73.0726 13.6695 73.3043 13.3149C73.6482 12.7885 74.2018 12.638 74.7779 12.9141C75.474 13.2478 75.5845 14.0104 75.5988 18.585L75.6113 22.6321H74.6266C72.6302 22.6321 70.7644 23.3909 69.6209 24.6674C68.4724 25.9502 68.4102 26.2862 68.4102 31.2199C68.4102 36.1073 68.5176 36.6858 69.6225 37.7486C70.5828 38.6723 71.141 38.8876 72.5587 38.8813C73.9128 38.8753 74.5758 38.6388 75.232 37.9279L75.5924 37.5375L75.6976 38.1003L75.8028 38.6632H78.3773H80.9518L80.9036 38.0008C80.8595 37.3914 80.8144 37.3301 80.3388 37.2332C80.0547 37.1752 79.7815 37.0872 79.7319 37.0374C79.4468 36.7511 79.3812 34.5752 79.3737 25.1468L79.3653 14.6951L79.0004 13.9082C78.2259 12.2386 76.7088 11.4666 74.2356 11.4837C73.3995 11.4896 72.4334 11.5837 72.089 11.6931ZM97.5597 11.7709C96.4673 12.1497 95.6618 12.825 95.1801 13.7655C94.7983 14.5113 94.7881 14.617 94.7881 17.8473V21.1635L95.4504 22.5051C96.0152 23.6491 96.432 24.1814 98.2808 26.1207C101.274 29.2605 101.206 29.0951 101.206 33.2687C101.206 36.4037 101.187 36.6227 100.878 37.0407C100.452 37.6161 99.5718 37.7293 99.1122 37.2678C98.5926 36.7462 98.4686 35.8884 98.4678 32.8087L98.4669 29.8618H96.5884H94.7098V32.6062C94.7098 35.0074 94.7508 35.461 95.0378 36.2308C95.4241 37.2675 96.0941 37.9911 97.1527 38.5146C97.8468 38.8579 98.118 38.8939 100.032 38.8962C101.911 38.8986 102.233 38.8587 102.928 38.5368C103.874 38.0994 104.487 37.5388 104.939 36.6986C105.251 36.1178 105.28 35.803 105.327 32.5718C105.383 28.6015 105.296 28.079 104.305 26.4489C103.976 25.9082 102.763 24.5041 101.589 23.304C98.7709 20.4259 98.5899 20.0655 98.4973 17.1468C98.4094 14.3868 98.6109 13.2979 99.2725 12.9544C99.9386 12.6086 100.597 12.7903 100.931 13.4116C101.147 13.8134 101.21 14.4463 101.257 16.699L101.315 19.4887H103.27H105.225L105.173 16.9348C105.122 14.4723 105.105 14.3542 104.686 13.6393C104.193 12.7977 103.286 12.1143 102.157 11.7333C101.079 11.3698 98.6593 11.3896 97.5597 11.7709ZM80.4944 12.6127C80.5392 13.2362 80.5757 13.2839 81.0397 13.329C81.313 13.3556 81.63 13.4901 81.7441 13.6281C81.9102 13.829 81.9669 16.1128 82.0297 25.1315L82.1079 36.3842L82.5697 37.2211C83.1627 38.296 83.9752 38.7949 85.3379 38.9211C86.6311 39.0407 87.5261 38.7886 88.3004 38.0863L88.9176 37.5264V38.0948V38.6632H91.6221H94.3267L94.2671 38.0362C94.2125 37.4608 94.1588 37.3959 93.6157 37.2491C93.2098 37.1394 92.9941 36.9783 92.9296 36.7366C92.8779 36.5428 92.8346 30.8853 92.8335 24.1645L92.8313 11.9447H90.0917H87.3522V12.652C87.3522 13.3223 87.3752 13.3592 87.7919 13.3592C88.0338 13.3592 88.3545 13.4494 88.5048 13.5598C88.7602 13.7473 88.7783 14.4853 88.7824 24.8692C88.7863 35.1637 88.7666 36.0121 88.5131 36.4429C88.0028 37.3101 87.0136 37.4976 86.401 36.8432L86.0216 36.4377L85.9787 24.1912L85.9359 11.9447H83.1911H80.4462L80.4944 12.6127ZM45.9696 12.9613C46.5473 13.3675 46.6505 14.3311 46.6505 19.3226V24.0466H45.2415H43.8326V19.0908C43.8326 13.871 43.9006 13.2943 44.5615 12.9086C44.972 12.6691 45.5867 12.692 45.9696 12.9613ZM32.8352 13.2865C33.024 13.4193 33.2486 13.7905 33.3344 14.1116C33.4296 14.468 33.4975 18.8313 33.509 25.3248C33.5259 34.8781 33.5018 36.0048 33.2718 36.4512C32.8012 37.3648 31.733 37.4901 31.2124 36.6924C30.9815 36.3388 30.9559 35.4167 30.9613 27.6971C30.9721 12.6605 30.9365 13.8761 31.3803 13.4307C31.8202 12.9889 32.3391 12.9375 32.8352 13.2865ZM21.1336 29.7988C21.1336 34.8077 21.0966 35.7862 20.8913 36.2208C20.4609 37.1314 19.4072 37.3629 18.7735 36.6861L18.3941 36.2807L18.3519 30.9102C18.3137 26.0344 18.3355 25.4891 18.5868 24.9896C18.9132 24.3411 19.717 23.8901 20.5466 23.8897L21.1336 23.8894V29.7988ZM75.611 29.7439C75.6108 35.0029 75.583 35.6543 75.337 36.1483C74.8136 37.2001 73.6597 37.3305 73.088 36.4028C72.8029 35.9401 72.7885 35.6146 72.8289 30.5618C72.868 25.6895 72.8973 25.1718 73.1575 24.7733C73.5023 24.2456 74.2287 23.9039 75.0243 23.8956L75.6113 23.8894L75.611 29.7439ZM17.22 48.4009V50.9492L19.0334 50.8964L20.847 50.8436L21.3161 50.316C21.846 49.72 21.8277 49.224 21.2527 48.6056C20.9462 48.276 20.942 48.2354 21.1862 47.9646C21.5751 47.533 21.5149 46.7978 21.0552 46.3642C20.7053 46.0343 20.4802 45.9873 18.9418 45.9237L17.22 45.8525V48.4009ZM25.5729 46.7873C25.3503 47.2894 24.9365 48.3014 24.6532 49.0362C24.3699 49.771 24.0885 50.496 24.028 50.6472C23.9343 50.881 24.0095 50.9222 24.5294 50.9222C25.0862 50.9222 25.1587 50.873 25.339 50.3721L25.5371 49.822H26.5526C27.5649 49.822 27.5685 49.8236 27.7968 50.3721C28.0042 50.8703 28.0847 50.9222 28.6498 50.9222C28.9931 50.9222 29.2739 50.9037 29.2739 50.881C29.2739 50.8584 28.8275 49.7444 28.2816 48.4056L27.2893 45.9714L26.6333 45.9229L25.9774 45.8743L25.5729 46.7873ZM32.2092 45.9821C32.1447 46.0483 32.0918 47.1868 32.0918 48.5124V50.9222H32.7179H33.3441V50.0578C33.3441 49.2644 33.3731 49.1938 33.6963 49.199C33.9431 49.2031 34.2136 49.4502 34.5991 50.0241C35.1192 50.7982 35.1909 50.8463 35.8906 50.8916C36.2981 50.9178 36.6316 50.8952 36.6316 50.8411C36.6316 50.787 36.3498 50.4073 36.0054 49.9973C35.661 49.5872 35.3792 49.1792 35.3792 49.0906C35.3792 49.0019 35.5516 48.8507 35.7621 48.7544C36.2577 48.5276 36.5671 47.564 36.3376 46.9619C36.0555 46.2221 35.4878 45.9868 33.8275 45.9211C33.0021 45.8886 32.2737 45.916 32.2092 45.9821ZM39.4102 45.9823C39.3457 46.0484 39.2928 47.1868 39.2928 48.5124V50.9222H40.835C43.1404 50.9222 43.6761 50.6448 43.6761 49.4508C43.6761 49.0566 43.5689 48.8171 43.2958 48.6015C42.9225 48.3068 42.9211 48.2964 43.2176 48.0415C43.6637 47.658 43.6152 46.8236 43.1194 46.3562C42.7619 46.0189 42.5494 45.9725 41.1235 45.9205C40.2457 45.8884 39.4749 45.9163 39.4102 45.9823ZM46.4418 45.9977C46.3843 46.0552 46.3374 47.1868 46.3374 48.5124V50.9222H48.3725H50.4075V50.4507V49.9792H48.9986H47.5897V49.4291V48.879H48.7638H49.9379V48.4075V47.936H48.7638H47.5897V47.4645V46.993H48.9986H50.4075V46.4429V45.8928H48.4769C47.4149 45.8928 46.4991 45.94 46.4418 45.9977ZM53.4993 45.9821C53.4347 46.0483 53.3819 47.1868 53.3819 48.5124V50.9222H54.0081H54.6343V50.0746C54.6343 49.298 54.7731 49.0362 55.185 49.0362C55.2155 49.0362 55.5369 49.4605 55.8993 49.9792C56.533 50.8862 56.5842 50.9222 57.2399 50.9222C57.6149 50.9222 57.9217 50.8793 57.9217 50.8268C57.9217 50.7743 57.6399 50.3762 57.2955 49.9419C56.9511 49.5075 56.6698 49.1085 56.6703 49.0549C56.6709 49.0015 56.878 48.8396 57.1305 48.6953C57.6628 48.3913 57.9103 47.5164 57.6354 46.9107C57.3188 46.2132 56.7388 45.9853 55.1177 45.9211C54.2922 45.8886 53.564 45.916 53.4993 45.9821ZM61.3657 45.9959C60.7849 46.2287 60.4264 46.7398 60.4264 47.3347C60.4264 48.1441 60.7924 48.4735 62.139 48.8762C62.9916 49.1311 63.2442 49.2732 63.2442 49.4975C63.2442 50.0259 62.095 50.1581 61.1068 49.7434C60.3835 49.4401 60.4264 49.42 60.4264 50.0617C60.4264 50.7479 60.8488 50.961 62.2267 50.9703C63.7208 50.9804 64.4966 50.4023 64.4966 49.2792C64.4966 48.6492 64.0096 48.2469 62.8601 47.9269C61.6041 47.5772 61.3884 47.4229 61.6733 47.0782C61.9236 46.7753 62.6982 46.7673 63.5218 47.059L64.1517 47.2822L64.2192 46.8203C64.2608 46.5349 64.1989 46.2851 64.0569 46.1668C63.8147 45.9651 61.7669 45.835 61.3657 45.9959ZM67.471 48.4075V50.9222H68.0189H68.5668V49.9921V49.062L69.6629 49.0098L70.7592 48.9576L70.7587 49.9399L70.7584 50.9222H71.3846H72.0108V48.3981V45.8738L71.4237 45.9227L70.8367 45.9714L70.79 46.9537L70.7435 47.936H69.6551H68.5668V46.9144V45.8928H68.0189H67.471V48.4075ZM76.4645 46.114C75.8203 46.3956 75.1767 47.1953 75.0506 47.8708C74.709 49.6993 75.8239 50.9984 77.7361 51C78.9969 51.0011 79.8402 50.474 80.2339 49.4389C80.9296 47.6101 79.753 45.8855 77.8189 45.899C77.3366 45.9024 76.7272 45.9991 76.4645 46.114ZM83.1125 45.9579C83.0766 45.9936 83.0683 47.1252 83.094 48.4726L83.1408 50.9222H83.6811H84.2213V50.0755V49.2289L85.3354 49.1657C86.3567 49.1077 86.4873 49.0601 86.9009 48.5953C87.6853 47.7139 87.4181 46.5729 86.3192 46.1119C85.8473 45.9141 83.2801 45.7907 83.1125 45.9579ZM19.8313 46.932C20.7288 47.1738 20.2233 47.936 19.1657 47.936C18.4776 47.936 18.4723 47.9318 18.4723 47.3859C18.4723 46.8696 18.5036 46.836 18.9811 46.8381C19.2608 46.8392 19.6434 46.8816 19.8313 46.932ZM35.1524 47.3328C35.3119 47.8375 34.8117 48.2504 34.0407 48.2504C33.3793 48.2504 33.3768 48.2482 33.3166 47.6135C33.2832 47.2632 33.2698 46.9627 33.2867 46.9456C33.3036 46.9284 33.7081 46.9385 34.1857 46.9679C34.887 47.0111 35.073 47.0813 35.1524 47.3328ZM41.7863 46.9358C42.2108 47.021 42.2769 47.096 42.2364 47.4466C42.1928 47.8243 42.1225 47.8612 41.3671 47.9049L40.5452 47.9525V47.3941C40.5452 46.7845 40.7168 46.721 41.7863 46.9358ZM56.4885 47.4557C56.561 47.9708 56.1459 48.2504 55.3088 48.2504H54.6343V47.5805V46.9107L55.5344 46.9911C56.3431 47.0634 56.44 47.1106 56.4885 47.4557ZM78.6707 47.1947C78.9737 47.4565 79.1084 47.7518 79.1685 48.2873C79.2428 48.9494 79.2043 49.0679 78.7738 49.5001C78.145 50.1315 77.1985 50.1725 76.6218 49.5934C75.9214 48.8903 76.1904 47.3506 77.0761 46.9918C77.6664 46.7526 78.2436 46.8259 78.6707 47.1947ZM86.0399 47.4032C86.1855 47.9855 85.8558 48.2504 84.9849 48.2504H84.2213V47.6479C84.2213 47.3165 84.2506 47.016 84.2864 46.98C84.3223 46.944 84.71 46.9389 85.1482 46.969C85.8387 47.0163 85.9575 47.0741 86.0399 47.4032ZM27.2293 48.7612C27.2345 48.8261 26.9283 48.879 26.5488 48.879H25.8588L26.1966 48.0077L26.5344 47.1364L26.8771 47.8898C27.0654 48.3043 27.224 48.6962 27.2293 48.7612ZM0 48.4075V49.0362H6.26181H12.5236V48.4075V47.7789H6.26181H0V48.4075ZM92.8313 48.4093V49.0396L99.367 48.9986L105.903 48.9576L105.951 48.3682L106 47.7789H99.4156H92.8313V48.4093ZM20.3196 49.0676C20.7768 49.5267 20.243 49.9792 19.2439 49.9792H18.4723V49.4291V48.879H19.302C19.7583 48.879 20.2162 48.9639 20.3196 49.0676ZM42.4857 49.2419C42.7395 49.6592 42.2241 49.9792 41.298 49.9792H40.5452V49.4213V48.8633L41.429 48.9105C42.0793 48.9452 42.3588 49.0327 42.4857 49.2419Z" fill="#C8B07C"/>
</svg>
