<svg width="20" height="20" viewBox="0 0 20 20" fill="none" xmlns="http://www.w3.org/2000/svg">
<mask id="path-1-inside-1_247_4183" fill="white">
<path d="M8.91875 1.25H10.4625C11.4375 1.25 12.225 2.04375 12.225 3.0125V3.025H12.25C13.0938 3.025 13.775 3.70625 13.775 4.55C13.775 5.39375 13.0938 6.075 12.25 6.075H10.1875L7.1875 7.525V6.075H7.15C6.30625 6.075 5.625 5.39375 5.625 4.55C5.625 3.70625 6.30625 3.025 7.15 3.025H7.15625V3.0125C7.15625 2.0375 7.94375 1.25 8.91875 1.25ZM12.2563 8.575L7.1875 11.0312V12.3812L12.2563 9.93125V8.575ZM12.25 15.7125H10.3294L12.2563 14.7812V13.4312L7.53688 15.7125H7.15C6.30625 15.7125 5.625 16.3937 5.625 17.2375C5.625 18.0812 6.30625 18.7625 7.15 18.7625H12.25C13.0938 18.7625 13.775 18.0812 13.775 17.2375C13.775 16.3937 13.0938 15.7125 12.25 15.7125Z"/>
<path d="M7.1875 8.6L12.2563 6.15V7.5L7.1875 9.95V8.6ZM7.1875 13.4563L12.2563 11.0063V12.3563L7.1875 14.8063V13.4563Z"/>
</mask>
<path d="M8.91875 1.25H10.4625C11.4375 1.25 12.225 2.04375 12.225 3.0125V3.025H12.25C13.0938 3.025 13.775 3.70625 13.775 4.55C13.775 5.39375 13.0938 6.075 12.25 6.075H10.1875L7.1875 7.525V6.075H7.15C6.30625 6.075 5.625 5.39375 5.625 4.55C5.625 3.70625 6.30625 3.025 7.15 3.025H7.15625V3.0125C7.15625 2.0375 7.94375 1.25 8.91875 1.25ZM12.2563 8.575L7.1875 11.0312V12.3812L12.2563 9.93125V8.575ZM12.25 15.7125H10.3294L12.2563 14.7812V13.4312L7.53688 15.7125H7.15C6.30625 15.7125 5.625 16.3937 5.625 17.2375C5.625 18.0812 6.30625 18.7625 7.15 18.7625H12.25C13.0938 18.7625 13.775 18.0812 13.775 17.2375C13.775 16.3937 13.0938 15.7125 12.25 15.7125Z" fill="#A68F64"/>
<path d="M7.1875 8.6L12.2563 6.15V7.5L7.1875 9.95V8.6ZM7.1875 13.4563L12.2563 11.0063V12.3563L7.1875 14.8063V13.4563Z" fill="#A68F64"/>
<path d="M12.225 3.025H-87.775V103.025H12.225V3.025ZM10.1875 6.075V-93.925H-12.7119L-33.3294 -83.9599L10.1875 6.075ZM7.1875 7.525H-92.8125V166.926L50.7044 97.5599L7.1875 7.525ZM7.1875 6.075H107.188V-93.925H7.1875V6.075ZM7.15625 3.025V103.025H107.156V3.025H7.15625ZM12.2563 8.575H112.256V-151.006L-31.352 -81.4157L12.2563 8.575ZM7.1875 11.0312L-36.4208 -78.9594L-92.8125 -51.6327V11.0312H7.1875ZM7.1875 12.3812H-92.8125V171.786L50.7058 102.415L7.1875 12.3812ZM12.2563 9.93125L55.7746 99.9654L112.256 72.6648V9.93125H12.2563ZM10.3294 15.7125L-33.1847 -74.3238L10.3294 115.712V15.7125ZM12.2563 14.7812L55.7703 104.818L112.256 77.5181V14.7812H12.2563ZM12.2563 13.4312H112.256V-145.977L-31.264 -76.602L12.2563 13.4312ZM7.53688 15.7125V115.712H30.4383L51.0571 105.746L7.53688 15.7125ZM7.1875 8.6L-36.3309 -81.4342L-92.8125 -54.1335V8.6H7.1875ZM12.2563 6.15H112.256V-153.254L-31.2621 -83.8842L12.2563 6.15ZM12.2563 7.5L55.7746 97.5342L112.256 70.2336V7.5H12.2563ZM7.1875 9.95H-92.8125V169.354L50.7059 99.9842L7.1875 9.95ZM7.1875 13.4563L-36.3309 -76.5779L-92.8125 -49.2773V13.4563H7.1875ZM12.2563 11.0063H112.256V-148.398L-31.2621 -79.0279L12.2563 11.0063ZM12.2563 12.3563L55.7746 102.39L112.256 75.0898V12.3563H12.2563ZM7.1875 14.8063H-92.8125V174.211L50.7059 104.84L7.1875 14.8063ZM8.91875 1.25V101.25H10.4625V1.25V-98.75H8.91875V1.25ZM10.4625 1.25V101.25C-44.0216 101.25 -87.775 57.0413 -87.775 3.0125H12.225H112.225C112.225 -52.9538 66.8966 -98.75 10.4625 -98.75V1.25ZM12.225 3.0125H-87.775V3.025H12.225H112.225V3.0125H12.225ZM12.225 3.025V103.025H12.25V3.025V-96.975H12.225V3.025ZM12.25 3.025V103.025C-42.1347 103.025 -86.225 58.9348 -86.225 4.55H13.775H113.775C113.775 -51.5223 68.3222 -96.975 12.25 -96.975V3.025ZM13.775 4.55H-86.225C-86.225 -49.8347 -42.1347 -93.925 12.25 -93.925V6.075V106.075C68.3222 106.075 113.775 60.6222 113.775 4.55H13.775ZM12.25 6.075V-93.925H10.1875V6.075V106.075H12.25V6.075ZM10.1875 6.075L-33.3294 -83.9599L-36.3294 -82.5099L7.1875 7.525L50.7044 97.5599L53.7044 96.1099L10.1875 6.075ZM7.1875 7.525H107.188V6.075H7.1875H-92.8125V7.525H7.1875ZM7.1875 6.075V-93.925H7.15V6.075V106.075H7.1875V6.075ZM7.15 6.075V-93.925C61.5348 -93.925 105.625 -49.8347 105.625 4.55H5.625H-94.375C-94.375 60.6222 -48.9223 106.075 7.15 106.075V6.075ZM5.625 4.55H105.625C105.625 58.9347 61.5347 103.025 7.15 103.025V3.025V-96.975C-48.9222 -96.975 -94.375 -51.5222 -94.375 4.55H5.625ZM7.15 3.025V103.025H7.15625V3.025V-96.975H7.15V3.025ZM7.15625 3.025H107.156V3.0125H7.15625H-92.8438V3.025H7.15625ZM7.15625 3.0125H107.156C107.156 57.266 63.1722 101.25 8.91875 101.25V1.25V-98.75C-47.2847 -98.75 -92.8438 -53.191 -92.8438 3.0125H7.15625ZM12.2563 8.575L-31.352 -81.4157L-36.4208 -78.9594L7.1875 11.0312L50.7958 101.022L55.8645 98.5657L12.2563 8.575ZM7.1875 11.0312H-92.8125V12.3812H7.1875H107.188V11.0312H7.1875ZM7.1875 12.3812L50.7058 102.415L55.7746 99.9654L12.2563 9.93125L-31.2621 -80.1029L-36.3308 -77.6529L7.1875 12.3812ZM12.2563 9.93125H112.256V8.575H12.2563H-87.7438V9.93125H12.2563ZM12.25 15.7125V-84.2875H10.3294V15.7125V115.712H12.25V15.7125ZM10.3294 15.7125L53.8434 105.749L55.7703 104.818L12.2563 14.7812L-31.2578 -75.255L-33.1847 -74.3238L10.3294 15.7125ZM12.2563 14.7812H112.256V13.4312H12.2563H-87.7438V14.7812H12.2563ZM12.2563 13.4312L-31.264 -76.602L-35.9834 -74.3208L7.53688 15.7125L51.0571 105.746L55.7765 103.465L12.2563 13.4312ZM7.53688 15.7125V-84.2875H7.15V15.7125V115.712H7.53688V15.7125ZM7.15 15.7125V-84.2875C-48.9222 -84.2875 -94.375 -38.8347 -94.375 17.2375H5.625H105.625C105.625 71.6222 61.5347 115.712 7.15 115.712V15.7125ZM5.625 17.2375H-94.375C-94.375 73.3096 -48.9224 118.762 7.15 118.762V18.7625V-81.2375C61.5349 -81.2375 105.625 -37.1471 105.625 17.2375H5.625ZM7.15 18.7625V118.762H12.25V18.7625V-81.2375H7.15V18.7625ZM12.25 18.7625V118.762C68.3223 118.762 113.775 73.3096 113.775 17.2375H13.775H-86.225C-86.225 -37.1471 -42.1348 -81.2375 12.25 -81.2375V18.7625ZM13.775 17.2375H113.775C113.775 -38.8348 68.3222 -84.2875 12.25 -84.2875V15.7125V115.712C-42.1347 115.712 -86.225 71.6223 -86.225 17.2375H13.775ZM7.1875 8.6L50.7059 98.6342L55.7746 96.1842L12.2563 6.15L-31.2621 -83.8842L-36.3309 -81.4342L7.1875 8.6ZM12.2563 6.15H-87.7438V7.5H12.2563H112.256V6.15H12.2563ZM12.2563 7.5L-31.2621 -82.5342L-36.3309 -80.0842L7.1875 9.95L50.7059 99.9842L55.7746 97.5342L12.2563 7.5ZM7.1875 9.95H107.188V8.6H7.1875H-92.8125V9.95H7.1875ZM7.1875 13.4563L50.7059 103.49L55.7746 101.04L12.2563 11.0063L-31.2621 -79.0279L-36.3309 -76.5779L7.1875 13.4563ZM12.2563 11.0063H-87.7438V12.3563H12.2563H112.256V11.0063H12.2563ZM12.2563 12.3563L-31.2621 -77.6779L-36.3309 -75.2279L7.1875 14.8063L50.7059 104.84L55.7746 102.39L12.2563 12.3563ZM7.1875 14.8063H107.188V13.4563H7.1875H-92.8125V14.8063H7.1875Z" fill="#A68F64" mask="url(#path-1-inside-1_247_4183)"/>
</svg>
