<svg width="25" height="25" viewBox="0 0 25 25" fill="none" xmlns="http://www.w3.org/2000/svg">
<mask id="path-1-inside-1_822_569" fill="white">
<path d="M4.5225 2.4153e-06H7.1375L4.515 7.5H0L3.405 0.690002C3.50891 0.482635 3.66847 0.308269 3.86583 0.186411C4.06318 0.0645534 4.29055 1.01986e-05 4.5225 2.4153e-06ZM0.09 10L7.625 21.7175L4.4475 10H0.09ZM7.0375 10L10.8625 24.1125C10.9303 24.3684 11.0808 24.5948 11.2906 24.7562C11.5004 24.9177 11.7577 25.0053 12.0225 25.0053C12.2873 25.0053 12.5446 24.9177 12.7544 24.7562C12.9642 24.5948 13.1147 24.3684 13.1825 24.1125L17.0175 10H7.0375ZM19.6075 10L16.4225 21.7125L23.955 10H19.6075ZM24.045 7.5H19.5375L16.9125 2.4153e-06H19.5225C19.7549 -0.000454304 19.9828 0.0638698 20.1806 0.185753C20.3785 0.307637 20.5384 0.482255 20.6425 0.690002L24.045 7.5ZM16.89 7.5H7.165L9.785 2.4153e-06H14.26L16.89 7.5Z"/>
</mask>
<path d="M4.5225 2.4153e-06H7.1375L4.515 7.5H0L3.405 0.690002C3.50891 0.482635 3.66847 0.308269 3.86583 0.186411C4.06318 0.0645534 4.29055 1.01986e-05 4.5225 2.4153e-06ZM0.09 10L7.625 21.7175L4.4475 10H0.09ZM7.0375 10L10.8625 24.1125C10.9303 24.3684 11.0808 24.5948 11.2906 24.7562C11.5004 24.9177 11.7577 25.0053 12.0225 25.0053C12.2873 25.0053 12.5446 24.9177 12.7544 24.7562C12.9642 24.5948 13.1147 24.3684 13.1825 24.1125L17.0175 10H7.0375ZM19.6075 10L16.4225 21.7125L23.955 10H19.6075ZM24.045 7.5H19.5375L16.9125 2.4153e-06H19.5225C19.7549 -0.000454304 19.9828 0.0638698 20.1806 0.185753C20.3785 0.307637 20.5384 0.482255 20.6425 0.690002L24.045 7.5ZM16.89 7.5H7.165L9.785 2.4153e-06H14.26L16.89 7.5Z" fill="#0E0E0E"/>
<path d="M4.5225 2.4153e-06V-100H4.51915L4.5225 2.4153e-06ZM7.1375 2.4153e-06L101.533 33.007L148.041 -100H7.1375V2.4153e-06ZM4.515 7.5V107.5H75.4854L98.9106 40.507L4.515 7.5ZM0 7.5L-89.4427 -37.2214L-161.803 107.5H0V7.5ZM3.405 0.690002L-85.9984 -44.11L-86.0181 -44.0707L-86.0377 -44.0314L3.405 0.690002ZM0.09 10V-90H-183.107L-84.0203 64.0876L0.09 10ZM7.625 21.7175L-76.4853 75.8051L104.139 -4.45482L7.625 21.7175ZM4.4475 10L100.962 -16.1723L80.9415 -90H4.4475V10ZM7.0375 10V-90H-123.674L-89.4802 36.1598L7.0375 10ZM10.8625 24.1125L107.529 -1.49132L107.455 -1.76952L107.38 -2.04729L10.8625 24.1125ZM12.0225 25.0053V-74.9947V25.0053ZM13.1825 24.1125L-83.3179 -2.11099L-83.402 -1.80142L-83.4842 -1.49132L13.1825 24.1125ZM17.0175 10L113.518 36.2235L147.818 -90H17.0175V10ZM19.6075 10V-90H-56.8307L-76.8883 -16.2403L19.6075 10ZM16.4225 21.7125L-80.0733 -4.52778L100.53 75.8037L16.4225 21.7125ZM23.955 10L108.063 64.0912L207.161 -90H23.955V10ZM24.045 7.5V107.5H185.795L113.501 -37.1951L24.045 7.5ZM19.5375 7.5L-74.8483 40.535L-51.4106 107.5H19.5375V7.5ZM16.9125 2.4153e-06V-100H-124.036L-77.4733 33.035L16.9125 2.4153e-06ZM19.5225 2.4153e-06V100H19.6208L19.719 99.9998L19.5225 2.4153e-06ZM20.6425 0.690002L110.098 -44.0051L110.072 -44.0575L110.046 -44.1098L20.6425 0.690002ZM16.89 7.5V107.5H157.927L111.256 -25.5911L16.89 7.5ZM7.165 7.5L-87.2404 -25.479L-133.694 107.5H7.165V7.5ZM9.785 2.4153e-06V-100H-61.2078L-84.6204 -32.979L9.785 2.4153e-06ZM14.26 2.4153e-06L108.626 -33.0911L85.1635 -100H14.26V2.4153e-06ZM4.5225 2.4153e-06V100H7.1375V2.4153e-06V-100H4.5225V2.4153e-06ZM7.1375 2.4153e-06L-87.2581 -33.007L-89.8806 -25.507L4.515 7.5L98.9106 40.507L101.533 33.007L7.1375 2.4153e-06ZM4.515 7.5V-92.5H0V7.5V107.5H4.515V7.5ZM0 7.5L89.4427 52.2214L92.8477 45.4114L3.405 0.690002L-86.0377 -44.0314L-89.4427 -37.2214L0 7.5ZM3.405 0.690002L92.8084 45.49C84.5993 61.8721 71.9941 75.647 56.403 85.2737L3.86583 0.186411L-48.6713 -84.9009C-64.6572 -75.0304 -77.5815 -60.9068 -85.9984 -44.11L3.405 0.690002ZM3.86583 0.186411L56.403 85.2737C40.8118 94.9005 22.8496 99.9994 4.52586 100L4.5225 2.4153e-06L4.51915 -100C-14.2685 -99.9994 -32.6854 -94.7714 -48.6713 -84.9009L3.86583 0.186411ZM0.09 10L-84.0203 64.0876L-76.4853 75.8051L7.625 21.7175L91.7353 -32.37L84.2003 -44.0876L0.09 10ZM7.625 21.7175L104.139 -4.45482L100.962 -16.1723L4.4475 10L-92.0668 36.1723L-88.8893 47.8898L7.625 21.7175ZM4.4475 10V-90H0.09V10V110H4.4475V10ZM7.0375 10L-89.4802 36.1598L-85.6552 50.2723L10.8625 24.1125L107.38 -2.04729L103.555 -16.1598L7.0375 10ZM10.8625 24.1125L-85.8042 49.7163C-80.0874 71.2997 -67.3935 90.3864 -49.6996 104.004L11.2906 24.7562L72.2809 -54.4914C89.5551 -41.1969 101.948 -22.5628 107.529 -1.49132L10.8625 24.1125ZM11.2906 24.7562L-49.6996 104.004C-32.0056 117.621 -10.3049 125.005 12.0225 125.005V25.0053V-74.9947C33.8204 -74.9947 55.0065 -67.786 72.2809 -54.4914L11.2906 24.7562ZM12.0225 25.0053V125.005C34.3499 125.005 56.0506 117.621 73.7446 104.004L12.7544 24.7562L-48.2359 -54.4914C-30.9615 -67.786 -9.77544 -74.9947 12.0225 -74.9947V25.0053ZM12.7544 24.7562L73.7446 104.004C91.4385 90.3864 104.132 71.2997 109.849 49.7163L13.1825 24.1125L-83.4842 -1.49132C-77.903 -22.5628 -65.5101 -41.1969 -48.2359 -54.4914L12.7544 24.7562ZM13.1825 24.1125L109.683 50.336L113.518 36.2235L17.0175 10L-79.4829 -16.2235L-83.3179 -2.11099L13.1825 24.1125ZM17.0175 10V-90H7.0375V10V110H17.0175V10ZM19.6075 10L-76.8883 -16.2403L-80.0733 -4.52778L16.4225 21.7125L112.918 47.9528L116.103 36.2403L19.6075 10ZM16.4225 21.7125L100.53 75.8037L108.063 64.0912L23.955 10L-60.1529 -44.0912L-67.6854 -32.3787L16.4225 21.7125ZM23.955 10V-90H19.6075V10V110H23.955V10ZM24.045 7.5V-92.5H19.5375V7.5V107.5H24.045V7.5ZM19.5375 7.5L113.923 -25.535L111.298 -33.035L16.9125 2.4153e-06L-77.4733 33.035L-74.8483 40.535L19.5375 7.5ZM16.9125 2.4153e-06V100H19.5225V2.4153e-06V-100H16.9125V2.4153e-06ZM19.5225 2.4153e-06L19.719 99.9998C1.36183 100.036 -16.6421 94.9543 -32.2715 85.3255L20.1806 0.185753L72.6328 -84.954C56.6077 -94.8266 38.1479 -100.037 19.326 -99.9998L19.5225 2.4153e-06ZM20.1806 0.185753L-32.2715 85.3255C-47.901 75.6966 -60.537 61.9018 -68.7609 45.4898L20.6425 0.690002L110.046 -44.1098C101.614 -60.9372 88.6579 -75.0813 72.6328 -84.954L20.1806 0.185753ZM20.6425 0.690002L-68.8133 45.3851L-65.4108 52.1951L24.045 7.5L113.501 -37.1951L110.098 -44.0051L20.6425 0.690002ZM16.89 7.5V-92.5H7.165V7.5V107.5H16.89V7.5ZM7.165 7.5L101.57 40.479L104.19 32.979L9.785 2.4153e-06L-84.6204 -32.979L-87.2404 -25.479L7.165 7.5ZM9.785 2.4153e-06V100H14.26V2.4153e-06V-100H9.785V2.4153e-06ZM14.26 2.4153e-06L-80.1062 33.0911L-77.4762 40.5911L16.89 7.5L111.256 -25.5911L108.626 -33.0911L14.26 2.4153e-06Z" fill="#C8B07C" mask="url(#path-1-inside-1_822_569)"/>
</svg>
