<svg width="20" height="20" viewBox="0 0 20 20" fill="none" xmlns="http://www.w3.org/2000/svg">
<path d="M7.49968 9.16667C7.49968 9.82971 7.76307 10.4656 8.23191 10.9344C8.70075 11.4033 9.33664 11.6667 9.99968 11.6667C10.6627 11.6667 11.2986 11.4033 11.7674 10.9344C12.2363 10.4656 12.4997 9.82971 12.4997 9.16667C12.4997 8.50363 12.2363 7.86774 11.7674 7.3989C11.2986 6.93006 10.6627 6.66667 9.99968 6.66667C9.33664 6.66667 8.70075 6.93006 8.23191 7.3989C7.76307 7.86774 7.49968 8.50363 7.49968 9.16667Z" fill="#DCC9A1"/>
<path d="M11.178 17.4167L14.7138 13.8808C15.6462 12.9485 16.2811 11.7606 16.5383 10.4674C16.7955 9.17419 16.6634 7.83376 16.1588 6.61561C15.6542 5.39745 14.7998 4.35628 13.7034 3.62376C12.6071 2.89123 11.3182 2.50024 9.99968 2.50024C8.68115 2.50024 7.39223 2.89123 6.29591 3.62376C5.19959 4.35628 4.34511 5.39745 3.84051 6.61561C3.33592 7.83376 3.20388 9.17419 3.46108 10.4674C3.71829 11.7606 4.3532 12.9485 5.28551 13.8808L8.82218 17.4167C9.13469 17.7289 9.55836 17.9042 10.0001 17.9042C10.4418 17.9042 10.8655 17.7289 11.178 17.4167Z" fill="#DCC9A1"/>
<path d="M7.49968 9.16667C7.49968 9.82971 7.76307 10.4656 8.23191 10.9344C8.70075 11.4033 9.33664 11.6667 9.99968 11.6667C10.6627 11.6667 11.2986 11.4033 11.7674 10.9344C12.2363 10.4656 12.4997 9.82971 12.4997 9.16667C12.4997 8.50363 12.2363 7.86774 11.7674 7.3989C11.2986 6.93006 10.6627 6.66667 9.99968 6.66667C9.33664 6.66667 8.70075 6.93006 8.23191 7.3989C7.76307 7.86774 7.49968 8.50363 7.49968 9.16667Z" stroke="#0E0E0E" stroke-width="1.5" stroke-linecap="round" stroke-linejoin="round"/>
<path d="M11.178 17.4167L14.7138 13.8808C15.6462 12.9485 16.2811 11.7606 16.5383 10.4674C16.7955 9.17419 16.6634 7.83376 16.1588 6.61561C15.6542 5.39745 14.7998 4.35628 13.7034 3.62376C12.6071 2.89123 11.3182 2.50024 9.99968 2.50024C8.68115 2.50024 7.39223 2.89123 6.29591 3.62376C5.19959 4.35628 4.34511 5.39745 3.84051 6.61561C3.33592 7.83376 3.20388 9.17419 3.46108 10.4674C3.71829 11.7606 4.3532 12.9485 5.28551 13.8808L8.82218 17.4167C9.13469 17.7289 9.55836 17.9042 10.0001 17.9042C10.4418 17.9042 10.8655 17.7289 11.178 17.4167Z" stroke="#0E0E0E" stroke-width="1.5" stroke-linecap="round" stroke-linejoin="round"/>
</svg>
