<svg width="20" height="20" viewBox="0 0 20 20" fill="none" xmlns="http://www.w3.org/2000/svg">
<mask id="path-1-inside-1_247_1997" fill="white">
<path d="M8.93722 9.79925L4.74615 5.94746C4.31148 5.54847 3.96544 5.06264 3.73042 4.52143C3.49541 3.98022 3.37666 3.39569 3.38186 2.80568L3.38829 2.14282L9.99972 8.73925L16.6115 2.14282L16.6244 2.74889C16.6373 3.34599 16.5232 3.93901 16.2896 4.48867C16.056 5.03832 15.7082 5.53204 15.2694 5.93711L11.0747 9.81175L12.9119 11.6446C13.4073 11.3684 13.9653 11.2237 14.5326 11.2243C16.3683 11.2243 17.8569 12.7089 17.8569 14.5407C17.8569 16.3725 16.3687 17.8571 14.5326 17.8571C12.6969 17.8571 11.2086 16.3725 11.2086 14.5407C11.2075 13.8093 11.4496 13.0983 11.8969 12.5196L10.0154 10.7903L8.11972 12.5418C8.55636 13.1166 8.79224 13.8188 8.79115 14.5407C8.79115 16.3725 7.30258 17.8571 5.46686 17.8571C3.63115 17.8571 2.14258 16.3725 2.14258 14.5407C2.14258 12.7089 3.63079 11.2243 5.46686 11.2243C6.05543 11.2243 6.60794 11.3767 7.08758 11.6446L8.93722 9.79925ZM5.46401 16.7857C6.03233 16.7857 6.57737 16.5599 6.97924 16.1581C7.3811 15.7562 7.60686 15.2111 7.60686 14.6428C7.60686 14.0745 7.3811 13.5295 6.97924 13.1276C6.57737 12.7257 6.03233 12.5 5.46401 12.5C4.89569 12.5 4.35064 12.7257 3.94878 13.1276C3.54691 13.5295 3.32115 14.0745 3.32115 14.6428C3.32115 15.2111 3.54691 15.7562 3.94878 16.1581C4.35064 16.5599 4.89569 16.7857 5.46401 16.7857ZM14.5354 16.7857C15.1038 16.7857 15.6488 16.5599 16.0507 16.1581C16.4525 15.7562 16.6783 15.2111 16.6783 14.6428C16.6783 14.0745 16.4525 13.5295 16.0507 13.1276C15.6488 12.7257 15.1038 12.5 14.5354 12.5C13.9671 12.5 13.4221 12.7257 13.0202 13.1276C12.6183 13.5295 12.3926 14.0745 12.3926 14.6428C12.3926 15.2111 12.6183 15.7562 13.0202 16.1581C13.4221 16.5599 13.9671 16.7857 14.5354 16.7857ZM9.99972 10.3571C10.1418 10.3571 10.2781 10.3007 10.3785 10.2002C10.479 10.0997 10.5354 9.96347 10.5354 9.82139C10.5354 9.67931 10.479 9.54305 10.3785 9.44259C10.2781 9.34212 10.1418 9.28568 9.99972 9.28568C9.85764 9.28568 9.72138 9.34212 9.62091 9.44259C9.52045 9.54305 9.46401 9.67931 9.46401 9.82139C9.46401 9.96347 9.52045 10.0997 9.62091 10.2002C9.72138 10.3007 9.85764 10.3571 9.99972 10.3571Z"/>
</mask>
<path d="M8.93722 9.79925L4.74615 5.94746C4.31148 5.54847 3.96544 5.06264 3.73042 4.52143C3.49541 3.98022 3.37666 3.39569 3.38186 2.80568L3.38829 2.14282L9.99972 8.73925L16.6115 2.14282L16.6244 2.74889C16.6373 3.34599 16.5232 3.93901 16.2896 4.48867C16.056 5.03832 15.7082 5.53204 15.2694 5.93711L11.0747 9.81175L12.9119 11.6446C13.4073 11.3684 13.9653 11.2237 14.5326 11.2243C16.3683 11.2243 17.8569 12.7089 17.8569 14.5407C17.8569 16.3725 16.3687 17.8571 14.5326 17.8571C12.6969 17.8571 11.2086 16.3725 11.2086 14.5407C11.2075 13.8093 11.4496 13.0983 11.8969 12.5196L10.0154 10.7903L8.11972 12.5418C8.55636 13.1166 8.79224 13.8188 8.79115 14.5407C8.79115 16.3725 7.30258 17.8571 5.46686 17.8571C3.63115 17.8571 2.14258 16.3725 2.14258 14.5407C2.14258 12.7089 3.63079 11.2243 5.46686 11.2243C6.05543 11.2243 6.60794 11.3767 7.08758 11.6446L8.93722 9.79925ZM5.46401 16.7857C6.03233 16.7857 6.57737 16.5599 6.97924 16.1581C7.3811 15.7562 7.60686 15.2111 7.60686 14.6428C7.60686 14.0745 7.3811 13.5295 6.97924 13.1276C6.57737 12.7257 6.03233 12.5 5.46401 12.5C4.89569 12.5 4.35064 12.7257 3.94878 13.1276C3.54691 13.5295 3.32115 14.0745 3.32115 14.6428C3.32115 15.2111 3.54691 15.7562 3.94878 16.1581C4.35064 16.5599 4.89569 16.7857 5.46401 16.7857ZM14.5354 16.7857C15.1038 16.7857 15.6488 16.5599 16.0507 16.1581C16.4525 15.7562 16.6783 15.2111 16.6783 14.6428C16.6783 14.0745 16.4525 13.5295 16.0507 13.1276C15.6488 12.7257 15.1038 12.5 14.5354 12.5C13.9671 12.5 13.4221 12.7257 13.0202 13.1276C12.6183 13.5295 12.3926 14.0745 12.3926 14.6428C12.3926 15.2111 12.6183 15.7562 13.0202 16.1581C13.4221 16.5599 13.9671 16.7857 14.5354 16.7857ZM9.99972 10.3571C10.1418 10.3571 10.2781 10.3007 10.3785 10.2002C10.479 10.0997 10.5354 9.96347 10.5354 9.82139C10.5354 9.67931 10.479 9.54305 10.3785 9.44259C10.2781 9.34212 10.1418 9.28568 9.99972 9.28568C9.85764 9.28568 9.72138 9.34212 9.62091 9.44259C9.52045 9.54305 9.46401 9.67931 9.46401 9.82139C9.46401 9.96347 9.52045 10.0997 9.62091 10.2002C9.72138 10.3007 9.85764 10.3571 9.99972 10.3571Z" fill="#A68F64"/>
<path d="M8.93722 9.79925L79.5658 80.5919L153.494 6.83544L76.6048 -63.8288L8.93722 9.79925ZM4.74615 5.94746L72.4137 -67.6806L72.3916 -67.701L72.3694 -67.7214L4.74615 5.94746ZM3.38186 2.80568L-96.6134 1.83593L-96.6139 1.8798L-96.6142 1.92368L3.38186 2.80568ZM3.38829 2.14282L74.0186 -68.6481L-94.3012 -236.586L-96.607 1.17307L3.38829 2.14282ZM9.99972 8.73925L-60.6306 79.5302L9.99781 149.998L80.6281 79.5321L9.99972 8.73925ZM16.6115 2.14282L116.589 0.0219128L111.626 -233.909L-54.0169 -68.65L16.6115 2.14282ZM16.6244 2.74889L-83.3531 4.8698L-83.3526 4.89357L-83.3521 4.91734L16.6244 2.74889ZM15.2694 5.93711L-52.5546 -67.547L-52.5692 -67.5335L-52.5838 -67.52L15.2694 5.93711ZM11.0747 9.81175L-56.7785 -63.6453L-133.296 7.03457L-59.5533 80.6049L11.0747 9.81175ZM12.9119 11.6446L-57.7162 82.4378L-4.29976 135.73L61.605 98.9886L12.9119 11.6446ZM14.5326 11.2243L14.43 111.224L14.4813 111.224H14.5326V11.2243ZM11.2086 14.5407H111.209V14.4616L111.209 14.3825L11.2086 14.5407ZM11.8969 12.5196L91.0192 73.6724L147.166 1.02665L79.568 -61.1052L11.8969 12.5196ZM10.0154 10.7903L77.6866 -62.8345L9.84062 -125.194L-57.8448 -62.6603L10.0154 10.7903ZM8.11972 12.5418L-59.7405 -60.9089L-126.442 0.715706L-71.5118 73.0299L8.11972 12.5418ZM8.79115 14.5407L-91.2087 14.3896L-91.2089 14.4652V14.5407H8.79115ZM7.08758 11.6446L-41.6698 98.9528L24.2589 135.771L77.7162 82.4372L7.08758 11.6446ZM5.46401 16.7857V116.786V16.7857ZM7.60686 14.6428H107.607H7.60686ZM5.46401 12.5V-87.5V12.5ZM3.32115 14.6428H-96.6788H3.32115ZM14.5354 16.7857V116.786V16.7857ZM16.6783 14.6428H116.678H16.6783ZM14.5354 12.5V-87.5V12.5ZM12.3926 14.6428H-87.6074H12.3926ZM8.93722 9.79925L76.6048 -63.8288L72.4137 -67.6806L4.74615 5.94746L-62.9214 79.5756L-58.7304 83.4274L8.93722 9.79925ZM4.74615 5.94746L72.3694 -67.7214C82.2489 -58.6526 90.1141 -47.6103 95.4557 -35.3092L3.73042 4.52143L-87.9948 44.3521C-82.1832 57.7356 -73.626 69.7495 -62.8771 79.6163L4.74615 5.94746ZM3.73042 4.52143L95.4557 -35.3092C100.797 -23.0082 103.496 -9.72255 103.378 3.68768L3.38186 2.80568L-96.6142 1.92368C-96.7429 16.5139 -93.8064 30.9686 -87.9948 44.3521L3.73042 4.52143ZM3.38186 2.80568L103.377 3.77543L103.384 3.11257L3.38829 2.14282L-96.607 1.17307L-96.6134 1.83593L3.38186 2.80568ZM3.38829 2.14282L-67.242 72.9338L-60.6306 79.5302L9.99972 8.73925L80.63 -62.0517L74.0186 -68.6481L3.38829 2.14282ZM9.99972 8.73925L80.6281 79.5321L87.2399 72.9357L16.6115 2.14282L-54.0169 -68.65L-60.6287 -62.0536L9.99972 8.73925ZM16.6115 2.14282L-83.366 4.26373L-83.3531 4.8698L16.6244 2.74889L116.602 0.627984L116.589 0.0219128L16.6115 2.14282ZM16.6244 2.74889L-83.3521 4.91734C-83.6465 -8.65395 -81.0529 -22.1327 -75.7434 -34.6256L16.2896 4.48867L108.323 43.603C114.099 30.0108 116.921 15.3459 116.601 0.580449L16.6244 2.74889ZM16.2896 4.48867L-75.7434 -34.6256C-70.4339 -47.1185 -62.5297 -58.3402 -52.5546 -67.547L15.2694 5.93711L83.0933 79.4212C93.9462 69.4043 102.546 57.1951 108.323 43.603L16.2896 4.48867ZM15.2694 5.93711L-52.5838 -67.52L-56.7785 -63.6453L11.0747 9.81175L78.9279 83.2688L83.1226 79.3942L15.2694 5.93711ZM11.0747 9.81175L-59.5533 80.6049L-57.7162 82.4378L12.9119 11.6446L83.5399 -59.1486L81.7028 -60.9814L11.0747 9.81175ZM12.9119 11.6446L61.605 98.9886C47.1828 107.029 30.9417 111.241 14.43 111.224L14.5326 11.2243L14.6352 -88.7757C-3.01112 -88.7938 -20.3681 -84.2921 -35.7813 -75.6994L12.9119 11.6446ZM14.5326 11.2243V111.224C-38.6289 111.224 -82.1431 68.1684 -82.1431 14.5407H17.8569H117.857C117.857 -42.7506 71.3655 -88.7757 14.5326 -88.7757V11.2243ZM17.8569 14.5407H-82.1431C-82.1431 -39.08 -38.6355 -82.1429 14.5326 -82.1429V17.8571V117.857C71.3728 117.857 117.857 71.825 117.857 14.5407H17.8569ZM14.5326 17.8571V-82.1429C67.708 -82.1429 111.209 -39.0731 111.209 14.5407H11.2086H-88.7914C-88.7914 71.818 -42.3143 117.857 14.5326 117.857V17.8571ZM11.2086 14.5407L111.209 14.3825C111.242 35.8383 104.14 56.6961 91.0192 73.6724L11.8969 12.5196L-67.2254 -48.6332C-81.2408 -30.4995 -88.8275 -8.21967 -88.7912 14.6989L11.2086 14.5407ZM11.8969 12.5196L79.568 -61.1052L77.6866 -62.8345L10.0154 10.7903L-57.6557 84.4152L-55.7743 86.1445L11.8969 12.5196ZM10.0154 10.7903L-57.8448 -62.6603L-59.7405 -60.9089L8.11972 12.5418L75.9799 85.9924L77.8756 84.2409L10.0154 10.7903ZM8.11972 12.5418L-71.5118 73.0299C-84.3209 56.167 -91.2407 35.5658 -91.2087 14.3896L8.79115 14.5407L108.791 14.6917C108.825 -7.92809 101.434 -29.9338 87.7512 -47.9464L8.11972 12.5418ZM8.79115 14.5407H-91.2089C-91.2089 -39.087 -47.6946 -82.1429 5.46686 -82.1429V17.8571V117.857C62.2998 117.857 108.791 71.8319 108.791 14.5407H8.79115ZM5.46686 17.8571V-82.1429C58.6283 -82.1429 102.143 -39.087 102.143 14.5407H2.14258H-97.8574C-97.8574 71.8319 -51.366 117.857 5.46686 117.857V17.8571ZM2.14258 14.5407H102.143C102.143 68.1614 58.635 111.224 5.46686 111.224V11.2243V-88.7757C-51.3734 -88.7757 -97.8574 -42.7436 -97.8574 14.5407H2.14258ZM5.46686 11.2243V111.224C-11.4359 111.224 -27.6194 106.799 -41.6698 98.9528L7.08758 11.6446L55.8449 -75.6636C40.8353 -84.0458 23.5468 -88.7757 5.46686 -88.7757V11.2243ZM7.08758 11.6446L77.7162 82.4372L79.5658 80.5919L8.93722 9.79925L-61.6914 -60.9934L-63.541 -59.148L7.08758 11.6446ZM5.46401 16.7857V116.786C32.5539 116.786 58.5343 106.024 77.6899 86.8687L6.97924 16.1581L-63.7314 -54.5526C-45.3796 -72.9045 -20.4892 -83.2143 5.46401 -83.2143V16.7857ZM6.97924 16.1581L77.6899 86.8687C96.8455 67.7132 107.607 41.7327 107.607 14.6428H7.60686H-92.3931C-92.3931 -11.3105 -82.0833 -36.2008 -63.7314 -54.5526L6.97924 16.1581ZM7.60686 14.6428H107.607C107.607 -12.4471 96.8454 -38.4276 77.6899 -57.5831L6.97924 13.1276L-63.7314 83.8383C-82.0832 65.4865 -92.3931 40.5961 -92.3931 14.6428H7.60686ZM6.97924 13.1276L77.6899 -57.5831C58.5344 -76.7386 32.554 -87.5 5.46401 -87.5V12.5V112.5C-20.4893 112.5 -45.3797 102.19 -63.7314 83.8383L6.97924 13.1276ZM5.46401 12.5V-87.5C-21.6259 -87.5 -47.6064 -76.7386 -66.7619 -57.5831L3.94878 13.1276L74.6595 83.8383C56.3077 102.19 31.4173 112.5 5.46401 112.5V12.5ZM3.94878 13.1276L-66.7619 -57.5831C-85.9174 -38.4276 -96.6788 -12.4472 -96.6788 14.6428H3.32115H103.321C103.321 40.5962 93.0112 65.4865 74.6595 83.8383L3.94878 13.1276ZM3.32115 14.6428H-96.6788C-96.6788 41.7328 -85.9174 67.7132 -66.7619 86.8687L3.94878 16.1581L74.6595 -54.5526C93.0112 -36.2008 103.321 -11.3105 103.321 14.6428H3.32115ZM3.94878 16.1581L-66.7619 86.8687C-47.6063 106.024 -21.6259 116.786 5.46401 116.786V16.7857V-83.2143C31.4172 -83.2143 56.3076 -72.9045 74.6595 -54.5526L3.94878 16.1581ZM14.5354 16.7857V116.786C41.6253 116.786 67.6057 106.024 86.7613 86.8687L16.0507 16.1581L-54.66 -54.5526C-36.3081 -72.9045 -11.4177 -83.2143 14.5354 -83.2143V16.7857ZM16.0507 16.1581L86.7613 86.8687C105.917 67.7131 116.678 41.7326 116.678 14.6428H16.6783H-83.3217C-83.3217 -11.3104 -73.0119 -36.2007 -54.66 -54.5526L16.0507 16.1581ZM16.6783 14.6428H116.678C116.678 -12.447 105.917 -38.4275 86.7613 -57.5831L16.0507 13.1276L-54.66 83.8383C-73.0119 65.4864 -83.3217 40.596 -83.3217 14.6428H16.6783ZM16.0507 13.1276L86.7613 -57.5831C67.6058 -76.7386 41.6254 -87.5 14.5354 -87.5V12.5V112.5C-11.4178 112.5 -36.3082 102.19 -54.66 83.8383L16.0507 13.1276ZM14.5354 12.5V-87.5C-12.5545 -87.5 -38.5349 -76.7386 -57.6905 -57.5831L13.0202 13.1276L83.7309 83.8383C65.3791 102.19 40.4887 112.5 14.5354 112.5V12.5ZM13.0202 13.1276L-57.6905 -57.5831C-76.846 -38.4276 -87.6074 -12.4471 -87.6074 14.6428H12.3926H112.393C112.393 40.5961 102.083 65.4865 83.7309 83.8383L13.0202 13.1276ZM12.3926 14.6428H-87.6074C-87.6074 41.7327 -76.846 67.7132 -57.6905 86.8687L13.0202 16.1581L83.7309 -54.5526C102.083 -36.2008 112.393 -11.3105 112.393 14.6428H12.3926ZM13.0202 16.1581L-57.6905 86.8687C-38.5349 106.024 -12.5544 116.786 14.5354 116.786V16.7857V-83.2143C40.4886 -83.2143 65.379 -72.9045 83.7309 -54.5526L13.0202 16.1581ZM9.99972 10.3571V110.357C36.664 110.357 62.2355 99.7646 81.0892 80.9109L10.3785 10.2002L-60.3321 -60.5105C-41.6794 -79.1632 -16.3804 -89.6429 9.99972 -89.6429V10.3571ZM10.3785 10.2002L81.0892 80.9109C99.9432 62.0569 110.535 36.4853 110.535 9.82139H10.5354H-89.4646C-89.4646 -16.5584 -78.9852 -41.8574 -60.3321 -60.5105L10.3785 10.2002ZM10.5354 9.82139H110.535C110.535 -16.8425 99.9432 -42.4141 81.0892 -61.2681L10.3785 9.44259L-60.3321 80.1533C-78.9852 61.5002 -89.4646 36.2012 -89.4646 9.82139H10.5354ZM10.3785 9.44259L81.0892 -61.2681C62.2355 -80.1218 36.664 -90.7143 9.99972 -90.7143V9.28568V109.286C-16.3804 109.286 -41.6794 98.806 -60.3321 80.1533L10.3785 9.44259ZM9.99972 9.28568V-90.7143C-16.6644 -90.7143 -42.236 -80.1219 -61.0898 -61.2681L9.62091 9.44259L80.3316 80.1533C61.6787 98.8061 36.3797 109.286 9.99972 109.286V9.28568ZM9.62091 9.44259L-61.0898 -61.2681C-79.9437 -42.4141 -90.536 -16.8425 -90.536 9.82139H9.46401H109.464C109.464 36.2012 98.9846 61.5002 80.3316 80.1533L9.62091 9.44259ZM9.46401 9.82139H-90.536C-90.536 36.4853 -79.9437 62.0569 -61.0898 80.9109L9.62091 10.2002L80.3316 -60.5105C98.9846 -41.8574 109.464 -16.5584 109.464 9.82139H9.46401ZM9.62091 10.2002L-61.0898 80.9109C-42.236 99.7647 -16.6644 110.357 9.99972 110.357V10.3571V-89.6429C36.3797 -89.6429 61.6787 -79.1634 80.3316 -60.5105L9.62091 10.2002Z" fill="#A68F64" mask="url(#path-1-inside-1_247_1997)"/>
</svg>
