<svg width="27" height="26" viewBox="0 0 27 26" fill="none" xmlns="http://www.w3.org/2000/svg">
<path d="M25.7965 23.25L23.2965 20.75M14.7871 12.2406L12.1353 14.8919L4.18025 6.9375C2.41275 5.16875 2.41275 4.28563 2.41275 3.40188C2.41275 2.5175 3.2965 0.75 3.2965 0.75L14.7871 12.2406ZM14.7871 12.2406L20.1715 17.625M1.78315 20.8668L22.7103 17.1768C23.3902 17.0569 24.0385 17.5109 24.1584 18.1907L24.3754 19.4217C24.4953 20.1016 24.0414 20.7499 23.3615 20.8698L2.43433 24.5598C1.75446 24.6797 1.10614 24.2257 0.98626 23.5459L0.769199 22.3149C0.64932 21.635 1.10328 20.9867 1.78315 20.8668Z" stroke="#C8B07C" stroke-width="1.5" stroke-linecap="round" stroke-linejoin="round"/>
</svg>
