<svg width="103" height="103" viewBox="0 0 103 103" fill="none" xmlns="http://www.w3.org/2000/svg">
<rect width="103" height="103" rx="51.5" fill="#1D7A43" fill-opacity="0.5"/>
<path d="M44.625 46.9166C44.625 47.2205 44.7457 47.5119 44.9606 47.7268C45.1755 47.9417 45.4669 48.0624 45.7708 48.0624C46.0747 48.0624 46.3662 47.9417 46.5811 47.7268C46.7959 47.5119 46.9167 47.2205 46.9167 46.9166V44.6249C46.9167 44.321 46.7959 44.0296 46.5811 43.8147C46.3662 43.5998 46.0747 43.4791 45.7708 43.4791C45.4669 43.4791 45.1755 43.5998 44.9606 43.8147C44.7457 44.0296 44.625 44.321 44.625 44.6249V46.9166ZM44.625 46.9166C44.625 49.9555 45.8322 52.87 47.9811 55.0188C50.1299 57.1677 53.0444 58.3749 56.0833 58.3749M56.0833 58.3749H58.375C58.6789 58.3749 58.9703 58.2542 59.1852 58.0393C59.4001 57.8244 59.5208 57.533 59.5208 57.2291C59.5208 56.9252 59.4001 56.6337 59.1852 56.4188C58.9703 56.204 58.6789 56.0832 58.375 56.0832H56.0833C55.7794 56.0832 55.488 56.204 55.2731 56.4188C55.0582 56.6337 54.9375 56.9252 54.9375 57.2291C54.9375 57.533 55.0582 57.8244 55.2731 58.0393C55.488 58.2542 55.7794 58.3749 56.0833 58.3749ZM30.875 72.1249L34.6563 63.4166C31.7634 59.31 30.4686 54.2889 31.0149 49.2956C31.5612 44.3022 33.911 39.6798 37.6233 36.2959C41.3356 32.912 46.1553 30.9991 51.1777 30.9164C56.2002 30.8336 61.0803 32.5866 64.9021 35.8464C68.7239 39.1061 71.2247 43.6486 71.9352 48.6213C72.6457 53.5939 71.5171 58.655 68.7611 62.8546C66.0051 67.0542 61.8112 70.1037 56.9665 71.4308C52.1218 72.7579 46.9594 72.2713 42.4479 70.0624L30.875 72.1249Z" stroke="white" stroke-width="3" stroke-linecap="round" stroke-linejoin="round"/>
</svg>
