<svg width="14" height="14" viewBox="0 0 14 14" fill="none" xmlns="http://www.w3.org/2000/svg">
<path d="M1.71929 0.280712L7.01229 5.57271L12.3053 0.280712C12.4939 0.0985542 12.7465 -0.00224062 13.0087 3.78025e-05C13.2709 0.00231622 13.5217 0.107485 13.7071 0.292894C13.8925 0.478302 13.9977 0.729114 14 0.991311C14.0022 1.25351 13.9014 1.50611 13.7193 1.69471L8.42729 6.98771L13.7193 12.2807C13.9014 12.4693 14.0022 12.7219 14 12.9841C13.9977 13.2463 13.8925 13.4971 13.7071 13.6825C13.5217 13.8679 13.2709 13.9731 13.0087 13.9754C12.7465 13.9777 12.4939 13.8769 12.3053 13.6947L7.01229 8.40271L1.71929 13.6947C1.62704 13.7902 1.5167 13.8664 1.39469 13.9188C1.27269 13.9712 1.14147 13.9988 1.00869 14C0.87591 14.0011 0.744231 13.9758 0.621334 13.9255C0.498438 13.8753 0.386786 13.801 0.292893 13.7071C0.199 13.6132 0.124747 13.5016 0.0744663 13.3787C0.0241854 13.2558 -0.00111606 13.1241 3.77571e-05 12.9913C0.00119157 12.8585 0.0287779 12.7273 0.0811869 12.6053C0.133596 12.4833 0.209778 12.373 0.305288 12.2807L5.59729 6.98771L0.305288 1.69471C0.12313 1.50611 0.0223355 1.25351 0.0246139 0.991311C0.0268924 0.729114 0.132062 0.478302 0.31747 0.292894C0.502878 0.107485 0.75369 0.00231622 1.01589 3.78025e-05C1.27808 -0.00224062 1.53069 0.0985542 1.71929 0.280712Z" fill="white"/>
</svg>
